<svg width="209" height="198" viewBox="0 0 209 198" fill="none" xmlns="http://www.w3.org/2000/svg">
<path d="M176.737 167.051L58.4532 197.51C54.4409 198.539 50.1845 197.933 46.6178 195.827C43.0511 193.722 40.4654 190.287 39.428 186.277L3.65796 47.3625C2.62962 43.3502 3.2348 39.0938 5.34072 35.5271C7.44665 31.9605 10.8814 29.3747 14.8913 28.3373L124.935 0L153.099 12.6085L187.97 148.025C188.999 152.038 188.394 156.294 186.288 159.861C184.182 163.428 180.747 166.014 176.737 167.051Z" fill="#F2F2F2"/>
<path d="M16.01 32.6912C13.1545 33.43 10.7085 35.2713 9.20878 37.8112C7.70907 40.3511 7.27808 43.3821 8.01035 46.2394L43.7826 185.154C44.5214 188.01 46.3627 190.456 48.9026 191.955C51.4424 193.455 54.4735 193.886 57.3308 193.154L175.614 162.695C178.47 161.956 180.916 160.115 182.416 157.575C183.915 155.035 184.346 152.004 183.614 149.147L149.283 15.8272L124.53 4.74609L16.01 32.6912Z" fill="white"/>
<path d="M152.798 13.327L134.492 18.041C133.155 18.3851 131.737 18.1842 130.549 17.4826C129.36 16.7809 128.5 15.636 128.155 14.2996L124.674 0.779018C124.659 0.719856 124.66 0.657624 124.679 0.599442C124.698 0.54126 124.732 0.489477 124.779 0.450024C124.825 0.410571 124.882 0.385044 124.943 0.376356C125.003 0.367668 125.065 0.376169 125.121 0.400896L152.849 12.7149C152.911 12.7423 152.962 12.7883 152.997 12.8463C153.031 12.9044 153.046 12.9718 153.041 13.0391C153.035 13.1063 153.009 13.1702 152.965 13.2218C152.922 13.2734 152.863 13.3101 152.798 13.327Z" fill="#F2F2F2"/>
<path d="M143.167 131.957L89.3145 145.826C88.6478 145.993 87.9419 145.89 87.3509 145.539C86.7599 145.188 86.332 144.617 86.1606 143.951C85.9891 143.286 86.0882 142.579 86.4361 141.986C86.7839 141.393 87.3523 140.962 88.0171 140.787L141.87 126.918C142.202 126.831 142.547 126.81 142.887 126.856C143.227 126.903 143.554 127.016 143.849 127.19C144.145 127.363 144.404 127.593 144.61 127.867C144.817 128.141 144.967 128.453 145.052 128.785C145.138 129.117 145.157 129.463 145.108 129.802C145.06 130.142 144.945 130.468 144.769 130.763C144.594 131.058 144.363 131.315 144.088 131.52C143.813 131.725 143.5 131.873 143.167 131.957Z" fill="#CCCCCC"/>
<path d="M155.749 137.783L91.5034 154.328C91.1718 154.415 90.8262 154.436 90.4865 154.389C90.1468 154.343 89.8197 154.229 89.5239 154.056C89.2282 153.882 88.9696 153.652 88.7632 153.378C88.5567 153.105 88.4065 152.793 88.321 152.461C88.2354 152.129 88.2164 151.783 88.265 151.443C88.3136 151.104 88.4287 150.778 88.6039 150.483C88.7791 150.188 89.0108 149.931 89.2857 149.726C89.5607 149.521 89.8734 149.372 90.2059 149.289L154.451 132.745C155.118 132.577 155.824 132.68 156.415 133.031C157.006 133.382 157.434 133.953 157.605 134.619C157.777 135.285 157.678 135.991 157.33 136.584C156.982 137.177 156.414 137.608 155.749 137.783Z" fill="#CCCCCC"/>
<path d="M67.3349 162.526C72.4134 162.526 76.5304 158.409 76.5304 153.33C76.5304 148.252 72.4134 144.135 67.3349 144.135C62.2564 144.135 58.1394 148.252 58.1394 153.33C58.1394 158.409 62.2564 162.526 67.3349 162.526Z" fill="#6D7E5E"/>
<path d="M137.441 107.891L65.9187 126.302C63.8517 126.832 61.6589 126.52 59.8216 125.435C57.9843 124.35 56.6525 122.58 56.1183 120.514L41.1304 62.2878C40.6013 60.221 40.9135 58.0288 41.9985 56.1919C43.0836 54.355 44.8528 53.0234 46.9183 52.4892L118.44 34.0783C120.507 33.5487 122.7 33.8606 124.537 34.9457C126.375 36.0308 127.706 37.8004 128.241 39.8662L143.229 98.0926C143.758 100.159 143.446 102.352 142.361 104.188C141.276 106.025 139.507 107.357 137.441 107.891Z" fill="white"/>
<path d="M68.0133 156.553C67.813 156.605 67.6014 156.591 67.4102 156.512L67.3984 156.507L64.8934 155.445C64.7774 155.395 64.6722 155.324 64.5838 155.234C64.4955 155.144 64.4257 155.037 64.3785 154.92C64.3314 154.803 64.3077 154.678 64.3089 154.552C64.3101 154.426 64.3361 154.301 64.3854 154.185C64.4348 154.069 64.5065 153.964 64.5966 153.875C64.6866 153.787 64.7931 153.717 64.9101 153.67C65.0271 153.623 65.1522 153.599 65.2783 153.6C65.4044 153.602 65.5291 153.628 65.6452 153.677L67.2683 154.367L69.3952 149.364C69.4948 149.129 69.6834 148.944 69.9196 148.849C70.1557 148.754 70.4199 148.756 70.6542 148.856L70.6416 148.888L70.6547 148.855C70.8889 148.955 71.074 149.144 71.1692 149.38C71.2644 149.616 71.262 149.881 71.1625 150.115L68.6602 155.998C68.6021 156.134 68.5136 156.254 68.4015 156.35C68.2894 156.446 68.1567 156.515 68.0137 156.551L68.0133 156.553Z" fill="white"/>
<path d="M207.875 177.399C207.417 178.169 206.679 178.722 205.823 178.934C204.968 179.147 204.065 179.002 203.314 178.532L164.593 154.306C163.842 153.836 163.303 153.079 163.096 152.202C162.889 151.324 163.03 150.398 163.488 149.628C163.947 148.857 164.685 148.304 165.54 148.092C166.395 147.879 167.298 148.024 168.05 148.494L206.77 172.72C207.521 173.19 208.06 173.947 208.267 174.825C208.474 175.702 208.334 176.628 207.875 177.399Z" fill="#3F3D56"/>
<path d="M168.536 153.934C165.709 158.57 161.57 162.263 156.644 164.546C151.718 166.83 146.225 167.601 140.861 166.763C135.496 165.925 130.5 163.515 126.506 159.837C122.511 156.16 119.696 151.381 118.417 146.104C117.139 140.827 117.454 135.289 119.322 130.191C121.191 125.093 124.529 120.664 128.915 117.463C133.301 114.262 138.538 112.434 143.963 112.209C149.388 111.984 154.758 113.374 159.393 116.201C162.471 118.078 165.149 120.543 167.275 123.455C169.4 126.368 170.931 129.67 171.78 133.174C172.629 136.678 172.779 140.315 172.223 143.877C171.666 147.439 170.414 150.856 168.536 153.934ZM127.521 128.915C125.401 132.391 124.359 136.419 124.527 140.488C124.696 144.557 126.067 148.484 128.467 151.774C130.868 155.063 134.19 157.567 138.014 158.968C141.837 160.37 145.99 160.606 149.948 159.647C153.906 158.688 157.491 156.577 160.249 153.581C163.007 150.584 164.814 146.838 165.443 142.814C166.071 138.791 165.493 134.671 163.78 130.976C162.067 127.282 159.297 124.178 155.821 122.057C151.159 119.214 145.558 118.339 140.251 119.625C134.943 120.911 130.364 124.253 127.521 128.915Z" fill="#3F3D56"/>
<path d="M138.358 158.735C149.427 162.546 161.49 156.663 165.302 145.593C169.113 134.524 163.23 122.461 152.16 118.649C141.091 114.838 129.028 120.721 125.216 131.791C121.405 142.86 127.289 154.923 138.358 158.735Z" fill="#6D7E5E"/>
<path d="M90.9597 123.964L62.0442 130.944C62.0442 130.944 59.8232 114.619 51.6922 112.181C46.1495 110.516 38.096 97.7782 36.653 87.9867C36.6342 87.8564 36.6153 87.726 36.5992 87.5975C36.0236 83.1944 36.8351 79.4342 39.8845 77.6255C49.7425 71.7809 57.9702 71.8948 57.9702 71.8948C57.9702 71.8948 59.7387 71.4318 62.5141 71.3029C62.6127 71.2967 62.712 71.293 62.8119 71.2918C70.6892 71.0006 86.0909 73.4843 92.8921 95.6314C102.238 126.059 90.9583 123.959 90.9583 123.959L90.9597 123.964Z" fill="#3F3D56"/>
<path d="M62.5143 71.3022C62.9109 72.9151 63.0557 74.5874 62.9337 76.2488C62.6801 79.6941 61.2933 82.6569 59.0316 84.5922C52.258 90.392 42.1708 89.3171 36.4885 86.689C36.5047 86.8175 36.7922 89.2611 36.8111 89.3915C39.318 90.5233 49.7301 89.3884 51.6186 88.8627C54.4868 88.0644 57.0863 86.7159 59.2221 84.8849C61.545 82.8954 62.9679 79.8506 63.2285 76.313C63.3538 74.6241 63.2089 72.9279 62.8115 71.2887C62.7115 71.2899 62.6122 71.2936 62.5136 71.2998L62.5143 71.3022Z" fill="#6D7E5E"/>
<path d="M65.1991 72.7488L56.7389 60.0227C56.7389 60.0227 59.0307 47.0457 54.3716 46.9729C49.7118 46.8977 47.1805 54.9712 47.1805 54.9712C47.1805 54.9712 37.9884 53.7588 35.656 57.4928C35.656 57.4928 27.9585 50.0379 25.3163 52.6588C22.672 55.2802 30.4263 66.7083 30.4263 66.7083C30.4263 66.7083 27.1845 80.0721 34.0005 85.3711C40.8172 90.6724 60.9746 90.8884 65.2004 72.7458L65.1991 72.7488Z" fill="#3F3D56"/>
<path d="M87.7395 115.834C89.529 116.246 91.3914 116.653 93.069 116.098C94.7466 115.543 96.1623 113.711 95.8572 111.588C95.7002 110.491 95.1136 109.434 95.1694 108.349C95.2458 106.892 96.5434 105.975 97.7898 106.12C99.0383 106.264 100.188 107.215 101.126 108.297C102.881 110.325 104.176 113.267 103.625 115.872C103.148 118.13 101.449 119.565 99.8527 120.834C97.7237 122.525 95.3126 124.284 92.6264 123.683C89.926 123.079 87.6329 119.8 87.6837 116.613" fill="#3F3D56"/>
<path d="M47.5241 70.8911C47.5241 70.8911 44.3334 70.3033 42.9864 72.5238L46.1899 75.8764L47.5269 70.893L47.5241 70.8911Z" fill="#6D7E5E"/>
<path d="M37.7822 92.9727L52.3676 125.26C52.3676 125.26 47.2208 137.21 57.2833 134.224C67.3464 131.239 62.6338 125.724 62.6338 125.724L51.2531 97.342" fill="#3F3D56"/>
<path d="M57.0975 134.541C54.3588 135.304 52.4901 134.999 51.5387 133.634C49.8065 131.148 51.7815 126.075 52.1275 125.234L41.6145 100.988L41.9905 100.795L52.6067 125.279L52.5586 125.388C52.5345 125.443 50.1948 130.953 51.8569 133.335C52.7104 134.56 54.5084 134.775 57.2117 133.972C60.9688 132.857 63.1332 131.215 63.4733 129.224C63.7792 127.432 62.5034 125.904 62.4905 125.889L62.4606 125.852L62.4415 125.807L54.5231 106.056L54.9053 105.878L62.8073 125.586C63.0268 125.857 64.2204 127.442 63.8949 129.368C63.5206 131.573 61.3201 133.289 57.3552 134.464C57.2681 134.489 57.1831 134.512 57.0981 134.536L57.0975 134.541Z" fill="#2F2E41"/>
<path d="M50.9812 89.2969L65.5666 121.585C65.5666 121.585 60.4198 133.535 70.4822 130.548C80.5453 127.563 75.8327 122.049 75.8327 122.049L64.4521 93.6663" fill="#3F3D56"/>
<path d="M70.2964 130.869C67.5577 131.631 65.689 131.327 64.7376 129.961C63.0068 127.481 64.9771 122.414 65.3251 121.565L59.4599 108.571L59.8333 108.369L65.807 121.603L65.7575 121.716C65.7334 121.77 63.3937 127.28 65.0558 129.663C65.9093 130.888 67.71 131.105 70.4106 130.3C74.1698 129.184 76.3362 127.541 76.6729 125.546C76.9774 123.749 75.7023 122.232 75.6894 122.217L75.6575 122.18L64.2597 93.7524L64.642 93.5742L76.0042 121.914C76.2237 122.185 77.4173 123.77 77.0918 125.696C76.7175 127.901 74.517 129.617 70.5521 130.792C70.465 130.816 70.38 130.84 70.295 130.864L70.2964 130.869Z" fill="#2F2E41"/>
<g clip-path="url(#clip0_441_161)">
<path d="M156.01 86.9185C156.162 87.485 154.792 88.3028 154.793 88.8883C154.794 89.4691 155.895 90.0573 155.755 90.6496C155.609 91.2561 155.405 91.8546 155.144 92.4384C154.899 92.9842 153.754 93.221 153.404 93.7651C153.053 94.2679 152.669 94.7539 152.254 95.2201C151.857 95.7013 151.212 95.9529 150.741 96.4243C150.292 96.8726 150.657 97.9783 150.145 98.4143C149.655 98.8309 148.74 98.8467 148.195 99.2491C147.673 99.6354 147.588 100.549 147.018 100.92C146.469 101.277 145.701 101.392 145.11 101.733C144.538 102.062 143.841 102.22 143.233 102.531C142.642 102.834 142.379 103.767 141.756 104.05C141.149 104.326 140.329 104.244 139.694 104.5C139.073 104.75 138.141 104.254 137.495 104.484C136.863 104.708 136.34 105.193 135.686 105.397C135.044 105.596 134.468 106.013 133.807 106.19C133.145 106.367 132.605 107.082 131.95 107.23C131.281 107.382 130.466 106.736 129.807 106.857C129.133 106.982 128.571 108.035 127.908 108.128C127.23 108.224 126.489 107.539 125.825 107.604C125.144 107.67 124.459 108.485 123.796 108.518C123.114 108.553 122.474 107.697 121.814 107.697C121.132 107.698 120.404 108.14 119.75 108.105C119.071 108.069 118.319 108.305 117.674 108.232C117.001 108.155 116.413 107.706 115.78 107.59C115.119 107.468 114.663 106.849 114.05 106.685C113.406 106.513 112.567 106.782 111.982 106.564C111.365 106.333 110.389 106.574 109.846 106.294C109.271 105.998 108.895 105.342 108.409 104.992C107.899 104.623 108.386 103.423 107.984 102.996C107.566 102.553 106.345 102.655 106.056 102.152C105.755 101.626 105.524 101.068 105.365 100.489C105.214 99.9222 106.094 99.2224 106.093 98.6368C106.092 98.0561 105.151 97.4741 105.291 96.8817C105.426 96.311 105.186 95.5534 105.444 94.9784C105.689 94.4326 106.553 94.0128 106.903 93.4687C107.234 92.9544 107.987 92.6338 108.406 92.1258C108.803 91.6446 108.458 90.6067 108.929 90.1352C109.378 89.6869 110.081 89.3488 110.593 88.9128C111.083 88.4961 111.889 88.3284 112.433 87.9259C112.955 87.5397 113.991 87.7474 114.561 87.3769C115.11 87.0195 115.484 86.4603 116.075 86.1199C116.647 85.7905 116.6 84.4597 117.209 84.1484C117.8 83.8461 118.631 83.8625 119.254 83.5792C119.861 83.3032 120.98 84.0629 121.616 83.8068C122.236 83.5567 122.362 82.1081 123.008 81.8786C123.64 81.654 124.552 82.1425 125.206 81.9393C125.848 81.7399 126.607 81.966 127.268 81.7887C127.93 81.6114 128.442 80.8851 129.097 80.7368C129.766 80.5856 130.544 81.1558 131.203 81.0343C131.877 80.9101 132.391 79.5879 133.054 79.4943C133.732 79.3984 134.469 80.1166 135.132 80.0522C135.814 79.986 136.489 79.2367 137.152 79.2031C137.834 79.1685 138.466 79.9724 139.126 79.9717C139.808 79.9709 140.372 80.5064 141.026 80.5411C141.705 80.5771 142.61 79.3151 143.256 79.3885C143.928 79.465 144.565 79.7385 145.197 79.8547C145.858 79.9762 146.754 79.586 147.366 79.75C148.011 79.9224 148.379 80.75 148.964 80.9682C149.581 81.1987 150.465 81.0809 151.009 81.361C151.584 81.6573 151.85 82.393 152.335 82.7432C152.846 83.1121 153.009 83.7691 153.411 84.1959C153.829 84.6388 154.677 84.831 154.967 85.3342C155.259 85.8415 155.858 86.3522 156.01 86.9185Z" fill="#3F3D56"/>
<path d="M110.684 55.6759C109.868 55.9375 109.134 56.3878 108.565 56.9763C107.995 57.5648 107.612 58.2682 107.459 59.0077C107.031 61.2554 108.895 63.2618 111.141 64.2155C113.387 65.1692 115.995 65.3596 118.454 65.8692C121.758 66.5538 124.919 67.8859 127.074 70.1054C129.23 72.3249 130.252 75.5161 129.207 78.4681C128.238 81.2081 125.72 83.3674 123.306 85.3832" stroke="#3F3D56" stroke-width="0.3" stroke-miterlimit="10"/>
<path d="M115.191 41.465C114.375 41.7266 113.641 42.1768 113.072 42.7653C112.502 43.3538 112.119 44.0573 111.966 44.7968C111.539 47.0445 113.402 49.0509 115.648 50.0046C117.894 50.9583 120.502 51.1487 122.961 51.6583C126.265 52.3428 129.426 53.675 131.582 55.8944C133.737 58.1139 134.759 61.3052 133.714 64.2572C132.745 66.9971 130.227 69.1564 127.813 71.1723" stroke="#3F3D56" stroke-width="0.3" stroke-miterlimit="10"/>
<path d="M141.448 37.419C140.658 37.1997 139.796 37.1827 138.96 37.3698C138.123 37.5569 137.345 37.9408 136.713 38.4784C134.818 40.1326 134.795 42.8156 135.795 44.8217C136.796 46.8279 138.6 48.3887 140.071 50.1374C142.046 52.4863 143.461 55.3012 143.506 58.3199C143.551 61.3386 142.071 64.562 139.224 66.4752C136.581 68.251 133.194 68.7075 129.985 69.1" stroke="#3F3D56" stroke-width="0.3" stroke-miterlimit="10"/>
<path d="M125.69 68.5264C128.261 67.8375 130.112 66.4116 129.826 65.3415C129.539 64.2713 127.222 63.9623 124.652 64.6511C122.081 65.34 120.229 66.7659 120.516 67.836C120.802 68.9062 123.119 69.2152 125.69 68.5264Z" fill="#6D7E5E"/>
<path d="M125.019 68.3506C127.59 67.6617 129.441 66.2358 129.155 65.1657C128.868 64.0956 126.551 63.7865 123.98 64.4754C121.41 65.1642 119.558 66.5902 119.845 67.6603C120.131 68.7304 122.448 69.0394 125.019 68.3506Z" stroke="#3F3D56" stroke-width="0.1" stroke-miterlimit="10"/>
<path d="M135.33 64.1631C137.901 63.4742 139.753 62.0483 139.466 60.9782C139.179 59.9081 136.863 59.599 134.292 60.2879C131.721 60.9767 129.869 62.4027 130.156 63.4728C130.443 64.5429 132.759 64.8519 135.33 64.1631Z" fill="#6D7E5E"/>
<path d="M134.659 63.9853C137.23 63.2965 139.082 61.8706 138.795 60.8004C138.508 59.7303 136.192 59.4213 133.621 60.1101C131.05 60.799 129.198 62.2249 129.485 63.295C129.772 64.3651 132.088 64.6742 134.659 63.9853Z" stroke="#3F3D56" stroke-width="0.1" stroke-miterlimit="10"/>
<path d="M138.842 71.0596C141.412 70.3707 143.264 68.9448 142.977 67.8747C142.691 66.8045 140.374 66.4955 137.803 67.1843C135.232 67.8732 133.381 69.2991 133.667 70.3693C133.954 71.4394 136.271 71.7484 138.842 71.0596Z" fill="#6D7E5E"/>
<path d="M138.171 70.8838C140.741 70.1949 142.593 68.769 142.306 67.6989C142.02 66.6288 139.703 66.3197 137.132 67.0086C134.561 67.6974 132.71 69.1234 132.996 70.1935C133.283 71.2636 135.6 71.5726 138.171 70.8838Z" stroke="#3F3D56" stroke-width="0.1" stroke-miterlimit="10"/>
<path d="M132.973 53.0361C135.544 52.3473 137.395 50.9213 137.108 49.8512C136.822 48.7811 134.505 48.472 131.934 49.1609C129.363 49.8498 127.512 51.2757 127.798 52.3458C128.085 53.4159 130.402 53.725 132.973 53.0361Z" fill="#6D7E5E"/>
<path d="M132.302 52.8604C134.873 52.1715 136.724 50.7456 136.438 49.6754C136.151 48.6053 133.834 48.2963 131.263 48.9851C128.692 49.674 126.841 51.0999 127.128 52.17C127.414 53.2401 129.731 53.5492 132.302 52.8604Z" stroke="#3F3D56" stroke-width="0.1" stroke-miterlimit="10"/>
<path d="M121.023 54.9912C123.594 54.3023 125.446 52.8764 125.159 51.8063C124.872 50.7362 122.556 50.4271 119.985 51.116C117.414 51.8048 115.563 53.2308 115.849 54.3009C116.136 55.371 118.453 55.6801 121.023 54.9912Z" fill="#6D7E5E"/>
<path d="M120.353 54.8135C122.923 54.1246 124.775 52.6987 124.488 51.6286C124.202 50.5585 121.885 50.2494 119.314 50.9383C116.743 51.6271 114.892 53.053 115.178 54.1232C115.465 55.1933 117.782 55.5023 120.353 54.8135Z" stroke="#3F3D56" stroke-width="0.1" stroke-miterlimit="10"/>
<path d="M125.147 49.4326C127.718 48.7438 129.569 47.3178 129.283 46.2477C128.996 45.1776 126.679 44.8685 124.108 45.5574C121.537 46.2463 119.686 47.6722 119.973 48.7423C120.259 49.8124 122.576 50.1215 125.147 49.4326Z" fill="#6D7E5E"/>
<path d="M124.476 49.2549C127.047 48.566 128.898 47.1401 128.612 46.07C128.325 44.9999 126.008 44.6908 123.437 45.3797C120.867 46.0685 119.015 47.4945 119.302 48.5646C119.588 49.6347 121.905 49.9437 124.476 49.2549Z" stroke="#3F3D56" stroke-width="0.1" stroke-miterlimit="10"/>
<path d="M136.813 47.1963C139.384 46.5074 141.235 45.0815 140.949 44.0114C140.662 42.9413 138.345 42.6322 135.775 43.3211C133.204 44.0099 131.352 45.4359 131.639 46.506C131.926 47.5761 134.242 47.8852 136.813 47.1963Z" fill="#6D7E5E"/>
<path d="M136.142 47.0205C138.713 46.3316 140.565 44.9057 140.278 43.8356C139.991 42.7655 137.675 42.4564 135.104 43.1453C132.533 43.8341 130.681 45.2601 130.968 46.3302C131.255 47.4003 133.571 47.7094 136.142 47.0205Z" stroke="#3F3D56" stroke-width="0.1" stroke-miterlimit="10"/>
<path d="M146.817 50.3955C149.388 49.7066 151.239 48.2807 150.953 47.2106C150.666 46.1405 148.349 45.8314 145.779 46.5203C143.208 47.2091 141.356 48.6351 141.643 49.7052C141.929 50.7753 144.246 51.0844 146.817 50.3955Z" fill="#6D7E5E"/>
<path d="M146.146 50.2197C148.717 49.5309 150.568 48.1049 150.282 47.0348C149.995 45.9647 147.678 45.6556 145.108 46.3445C142.537 47.0334 140.685 48.4593 140.972 49.5294C141.259 50.5995 143.575 50.9086 146.146 50.2197Z" stroke="#3F3D56" stroke-width="0.1" stroke-miterlimit="10"/>
<path d="M114.17 48.8096C116.741 48.1207 118.593 46.6948 118.306 45.6247C118.019 44.5545 115.703 44.2455 113.132 44.9343C110.561 45.6232 108.709 47.0491 108.996 48.1193C109.283 49.1894 111.6 49.4984 114.17 48.8096Z" fill="#6D7E5E"/>
<path d="M113.499 48.6338C116.07 47.9449 117.922 46.519 117.635 45.4489C117.348 44.3788 115.032 44.0697 112.461 44.7586C109.89 45.4474 108.038 46.8734 108.325 47.9435C108.612 49.0136 110.928 49.3226 113.499 48.6338Z" stroke="#3F3D56" stroke-width="0.1" stroke-miterlimit="10"/>
<path d="M115.387 41.7139C117.958 41.025 119.81 39.5991 119.523 38.529C119.236 37.4588 116.92 37.1498 114.349 37.8386C111.778 38.5275 109.926 39.9534 110.213 41.0235C110.5 42.0937 112.816 42.4027 115.387 41.7139Z" fill="#6D7E5E"/>
<path d="M114.716 41.5381C117.287 40.8492 119.139 39.4233 118.852 38.3532C118.565 37.2831 116.249 36.974 113.678 37.6629C111.107 38.3517 109.255 39.7777 109.542 40.8478C109.829 41.9179 112.145 42.2269 114.716 41.5381Z" stroke="#3F3D56" stroke-width="0.1" stroke-miterlimit="10"/>
<path d="M143.594 39.1455C146.165 38.4566 148.017 37.0307 147.73 35.9606C147.443 34.8905 145.127 34.5814 142.556 35.2703C139.985 35.9591 138.133 37.3851 138.42 38.4552C138.707 39.5253 141.023 39.8344 143.594 39.1455Z" fill="#6D7E5E"/>
<path d="M142.923 38.9678C145.494 38.2789 147.346 36.853 147.059 35.7829C146.772 34.7127 144.456 34.4037 141.885 35.0925C139.314 35.7814 137.462 37.2073 137.749 38.2775C138.036 39.3476 140.352 39.6566 142.923 38.9678Z" stroke="#3F3D56" stroke-width="0.1" stroke-miterlimit="10"/>
<path d="M104.827 65.9228C107.398 65.234 109.25 63.8081 108.963 62.7379C108.676 61.6678 106.36 61.3588 103.789 62.0476C101.218 62.7365 99.3662 64.1624 99.653 65.2325C99.9397 66.3026 102.256 66.6117 104.827 65.9228Z" fill="#6D7E5E"/>
<path d="M104.156 65.7451C106.727 65.0563 108.579 63.6303 108.292 62.5602C108.005 61.4901 105.689 61.181 103.118 61.8699C100.547 62.5588 98.6953 63.9847 98.9821 65.0548C99.2688 66.1249 101.585 66.434 104.156 65.7451Z" stroke="#3F3D56" stroke-width="0.1" stroke-miterlimit="10"/>
<path d="M120.658 60.6103C123.229 59.9215 125.081 58.4956 124.794 57.4254C124.507 56.3553 122.191 56.0463 119.62 56.7351C117.049 57.424 115.198 58.8499 115.484 59.92C115.771 60.9901 118.088 61.2992 120.658 60.6103Z" fill="#6D7E5E"/>
<path d="M119.988 60.4346C122.558 59.7457 124.41 58.3198 124.123 57.2497C123.837 56.1795 121.52 55.8705 118.949 56.5593C116.378 57.2482 114.527 58.6741 114.813 59.7443C115.1 60.8144 117.417 61.1234 119.988 60.4346Z" stroke="#3F3D56" stroke-width="0.1" stroke-miterlimit="10"/>
<path d="M142.201 56.4424C144.772 55.7535 146.623 54.3276 146.336 53.2575C146.05 52.1874 143.733 51.8783 141.162 52.5672C138.591 53.256 136.74 54.682 137.027 55.7521C137.313 56.8222 139.63 57.1312 142.201 56.4424Z" fill="#6D7E5E"/>
<path d="M141.53 56.2666C144.101 55.5777 145.952 54.1518 145.666 53.0817C145.379 52.0116 143.062 51.7025 140.491 52.3914C137.921 53.0802 136.069 54.5062 136.356 55.5763C136.642 56.6464 138.959 56.9555 141.53 56.2666Z" stroke="#3F3D56" stroke-width="0.1" stroke-miterlimit="10"/>
<path d="M131.129 60.1221C133.7 59.4332 135.552 58.0073 135.265 56.9372C134.978 55.867 132.662 55.558 130.091 56.2468C127.52 56.9357 125.668 58.3616 125.955 59.4318C126.242 60.5019 128.558 60.8109 131.129 60.1221Z" fill="#6D7E5E"/>
<path d="M130.458 59.9443C133.029 59.2555 134.881 57.8295 134.594 56.7594C134.307 55.6893 131.991 55.3802 129.42 56.0691C126.849 56.758 124.997 58.1839 125.284 59.254C125.571 60.3241 127.887 60.6332 130.458 59.9443Z" stroke="#3F3D56" stroke-width="0.1" stroke-miterlimit="10"/>
<path d="M127.451 43.292C130.022 42.6031 131.874 41.1772 131.587 40.1071C131.3 39.037 128.984 38.7279 126.413 39.4168C123.842 40.1056 121.991 41.5316 122.277 42.6017C122.564 43.6718 124.881 43.9809 127.451 43.292Z" fill="#6D7E5E"/>
<path d="M126.78 43.1162C129.351 42.4273 131.203 41.0014 130.916 39.9313C130.63 38.8612 128.313 38.5521 125.742 39.241C123.171 39.9298 121.32 41.3558 121.606 42.4259C121.893 43.496 124.21 43.8051 126.78 43.1162Z" stroke="#3F3D56" stroke-width="0.1" stroke-miterlimit="10"/>
<path d="M110.235 58.9502C112.806 58.2613 114.658 56.8354 114.371 55.7653C114.084 54.6952 111.768 54.3861 109.197 55.075C106.626 55.7638 104.774 57.1898 105.061 58.2599C105.348 59.33 107.664 59.6391 110.235 58.9502Z" fill="#6D7E5E"/>
<path d="M109.564 58.7744C112.135 58.0856 113.987 56.6596 113.7 55.5895C113.413 54.5194 111.097 54.2103 108.526 54.8992C105.955 55.5881 104.103 57.014 104.39 58.0841C104.677 59.1542 106.993 59.4633 109.564 58.7744Z" stroke="#3F3D56" stroke-width="0.1" stroke-miterlimit="10"/>
<path d="M114.955 65.7021C117.525 65.0133 119.377 63.5874 119.09 62.5172C118.804 61.4471 116.487 61.1381 113.916 61.8269C111.345 62.5158 109.494 63.9417 109.78 65.0118C110.067 66.0819 112.384 66.391 114.955 65.7021Z" fill="#6D7E5E"/>
<path d="M114.284 65.5264C116.855 64.8375 118.706 63.4116 118.419 62.3415C118.133 61.2713 115.816 60.9623 113.245 61.6511C110.674 62.34 108.823 63.7659 109.11 64.836C109.396 65.9062 111.713 66.2152 114.284 65.5264Z" stroke="#3F3D56" stroke-width="0.1" stroke-miterlimit="10"/>
<g opacity="0.3">
<path d="M118.089 76.9667C118.476 75.783 118.324 74.7364 117.749 74.629C117.175 74.5216 116.395 75.394 116.008 76.5776C115.621 77.7612 115.773 78.8078 116.348 78.9152C116.922 79.0227 117.702 78.1503 118.089 76.9667Z" fill="#57B894"/>
<path d="M117.823 77.201C118.21 76.0174 118.058 74.9708 117.484 74.8634C116.909 74.7559 116.13 75.6283 115.742 76.812C115.355 77.9956 115.507 79.0422 116.082 79.1496C116.656 79.257 117.436 78.3846 117.823 77.201Z" stroke="#3F3D56" stroke-miterlimit="10"/>
</g>
<g opacity="0.3">
<path d="M143.647 75.2943C143.936 74.8176 143.19 74.0251 141.98 73.5243C140.77 73.0235 139.555 73.0039 139.266 73.4806C138.976 73.9573 139.723 74.7498 140.933 75.2506C142.142 75.7514 143.358 75.771 143.647 75.2943Z" fill="#57B894"/>
<path d="M143.463 75.0345C143.752 74.5578 143.006 73.7654 141.796 73.2645C140.586 72.7637 139.371 72.7442 139.081 73.2208C138.792 73.6975 139.539 74.49 140.749 74.9908C141.958 75.4916 143.174 75.5112 143.463 75.0345Z" stroke="#3F3D56" stroke-miterlimit="10"/>
</g>
<g opacity="0.3">
<path d="M119.118 70.6419C119.407 70.1652 118.661 69.3728 117.451 68.872C116.241 68.3711 115.026 68.3516 114.737 68.8283C114.447 69.305 115.194 70.0974 116.404 70.5982C117.613 71.0991 118.829 71.1186 119.118 70.6419Z" fill="#57B894"/>
<path d="M118.934 70.3822C119.223 69.9055 118.477 69.113 117.267 68.6122C116.057 68.1114 114.842 68.0918 114.552 68.5685C114.263 69.0452 115.01 69.8376 116.219 70.3385C117.429 70.8393 118.645 70.8589 118.934 70.3822Z" stroke="#3F3D56" stroke-miterlimit="10"/>
</g>
</g>
<defs>
<clipPath id="clip0_441_161">
<rect width="151.202" height="95.6907" fill="white" transform="translate(0 68.0469) rotate(-15)"/>
</clipPath>
</defs>
</svg>
