<svg width="158" height="247" viewBox="0 0 158 247" fill="none" xmlns="http://www.w3.org/2000/svg">
<path d="M150.806 61.1445H64.8529C61.2347 61.1445 58.3015 63.7867 58.3015 67.0459V107.027C58.3015 110.287 61.2347 112.929 64.8529 112.929H150.806C154.425 112.929 157.358 110.287 157.358 107.027V67.0459C157.358 63.7867 154.425 61.1445 150.806 61.1445Z" fill="white"/>
<path d="M150.809 113.327H64.8552C63.001 113.325 61.2234 112.661 59.9123 111.48C58.6012 110.299 57.8637 108.698 57.8616 107.027V67.0458C57.8637 65.3756 58.6012 63.7744 59.9123 62.5933C61.2234 61.4123 63.001 60.748 64.8552 60.7461H150.809C152.663 60.748 154.44 61.4124 155.752 62.5934C157.063 63.7744 157.8 65.3757 157.802 67.0458V107.027C157.8 108.698 157.063 110.299 155.752 111.48C154.44 112.661 152.663 113.325 150.809 113.327ZM64.8552 61.5428C63.2355 61.5444 61.6827 62.1247 60.5374 63.1564C59.392 64.1881 58.7478 65.5868 58.746 67.0458V107.027C58.7478 108.486 59.392 109.885 60.5374 110.917C61.6827 111.949 63.2355 112.529 64.8552 112.53H150.809C152.428 112.529 153.981 111.948 155.126 110.917C156.272 109.885 156.916 108.486 156.918 107.027V67.0458C156.916 65.5869 156.272 64.1881 155.126 63.1565C153.981 62.1248 152.428 61.5445 150.809 61.5428H64.8552Z" fill="#3F3D56"/>
<path d="M151.228 52.1827H65.2742C63.4786 52.1809 61.7571 51.5376 60.4874 50.394C59.2177 49.2503 58.5035 47.6996 58.5015 46.0821V6.10057C58.5035 4.48312 59.2177 2.93245 60.4874 1.78876C61.7571 0.645065 63.4786 0.00177021 65.2742 0H151.228C153.023 0.00185037 154.745 0.645187 156.014 1.78887C157.284 2.93256 157.998 4.48318 158 6.10057V46.0821C157.998 47.6995 157.284 49.2502 156.014 50.3938C154.745 51.5375 153.023 52.1809 151.228 52.1827Z" fill="#F2F2F2"/>
<path d="M150.784 174.874H64.8303C63.0347 174.872 61.3132 174.229 60.0435 173.085C58.7738 171.942 58.0596 170.391 58.0576 168.773V128.792C58.0596 127.175 58.7738 125.624 60.0435 124.48C61.3132 123.336 63.0347 122.693 64.8303 122.691H150.784C152.579 122.693 154.301 123.337 155.57 124.48C156.84 125.624 157.554 127.175 157.556 128.792V168.773C157.554 170.391 156.84 171.941 155.57 173.085C154.301 174.229 152.579 174.872 150.784 174.874Z" fill="#F2F2F2"/>
<path d="M132.553 81.3283C131.983 79.4492 130.81 77.7632 129.182 76.4808C127.555 75.1984 125.543 74.3765 123.4 74.1175C123.352 74.1112 123.307 74.1196 123.26 74.1167C123.199 74.099 123.137 74.0854 123.073 74.0759C113.075 72.8511 101.534 77.3837 97.3672 86.3682C95.3042 83.7781 92.0149 82.1046 88.4969 82.271C84.0089 82.4833 80.0481 85.5799 78.8348 89.6529C78.7678 89.8978 78.7861 90.1552 78.887 90.3904C78.988 90.6256 79.1668 90.8271 79.3992 90.9676C80.0514 91.4942 80.8349 91.8712 81.6834 92.0666C83.4991 92.4313 85.3213 92.7653 87.1499 93.0687C90.7182 93.6606 94.3051 94.1391 97.9106 94.5043C105.227 95.2476 112.593 95.5115 119.951 95.2939C122.402 95.2216 124.765 95.1445 127.01 94.1194C128.661 93.3402 130.057 92.1855 131.059 90.77C132.024 89.3767 132.656 87.8172 132.913 86.1913C133.17 84.5654 133.048 82.909 132.553 81.3283Z" fill="#4E6E4E"/>
<path d="M131.451 81.8019C130.91 80.1353 129.831 78.6515 128.35 77.54C126.81 76.4085 124.95 75.6872 122.979 75.4576H122.86L122.749 75.4397C122.714 75.4297 122.678 75.422 122.642 75.4167C119.345 75.0638 116.003 75.2791 112.795 76.0511C106.63 77.5119 100.791 80.9705 98.0646 86.5499L97.6755 87.3506L97.0933 86.6522C96.1982 85.5504 95.0318 84.6503 93.6856 84.0227C92.3395 83.3951 90.8502 83.057 89.3346 83.035C89.1869 83.035 89.0392 83.0375 88.8887 83.0452C86.8365 83.1642 84.8755 83.8524 83.2748 85.0153C81.6741 86.1783 80.5122 87.7589 79.9486 89.5404C79.92 89.6693 79.937 89.803 79.9971 89.9228C80.0572 90.0425 80.1574 90.1423 80.2837 90.2081L80.3292 90.2388C80.9017 90.6759 81.5794 90.9869 82.3086 91.147C84.0722 91.4846 85.867 91.7967 87.642 92.0756C91.084 92.6179 94.6169 93.0656 98.1384 93.4058C104.367 94.0081 110.63 94.2704 116.893 94.1912C117.811 94.181 118.726 94.1631 119.64 94.1375C121.991 94.0735 124.215 94.0096 126.322 93.0963C127.832 92.4224 129.122 91.4069 130.065 90.1493C130.958 88.9332 131.545 87.5558 131.784 86.1138C132.024 84.6719 131.91 83.2001 131.451 81.8019Z" fill="white"/>
<path d="M116.893 94.1967C110.63 94.2759 104.367 94.0136 98.1384 93.4113C94.6169 93.0711 91.084 92.6234 87.642 92.0811C85.867 91.8022 84.0722 91.4901 82.3086 91.1525C81.5794 90.9924 80.9017 90.6814 80.3292 90.2443L80.2837 90.2136C80.1574 90.1478 80.0572 90.048 79.9971 89.9283C79.937 89.8085 79.92 89.6748 79.9486 89.5459C80.5122 87.7644 81.6741 86.1838 83.2748 85.0208C84.8755 83.8579 86.8365 83.1697 88.8887 83.0507C89.0392 83.043 89.1869 83.0405 89.3346 83.0405C90.8502 83.0625 92.3395 83.4006 93.6856 84.0282C95.0318 84.6558 96.1982 85.5559 97.0933 86.6577L97.6755 87.3561L98.0646 86.5554C100.791 80.976 106.63 77.5174 112.795 76.0566C114.039 77.0697 114.84 78.6225 114.386 80.0628C113.838 81.81 111.668 82.8998 111.304 84.6854C110.972 86.315 112.267 87.8294 113.599 88.9703C114.931 90.1087 116.473 91.2522 116.859 92.869C116.963 93.3058 116.974 93.7561 116.893 94.1967Z" fill="#6D7E5E"/>
<path d="M122.245 89.229C125.069 89.229 127.357 87.1674 127.357 84.6243C127.357 82.0811 125.069 80.0195 122.245 80.0195C119.422 80.0195 117.134 82.0811 117.134 84.6243C117.134 87.1674 119.422 89.229 122.245 89.229Z" fill="#4E6E4E"/>
<path d="M124.389 84.1314L122.473 82.4046C122.443 82.3779 122.408 82.3567 122.369 82.3422C122.33 82.3278 122.289 82.3203 122.247 82.3203C122.205 82.3203 122.163 82.3278 122.124 82.3422C122.086 82.3567 122.05 82.3779 122.021 82.4046L120.104 84.1314C120.074 84.1581 120.05 84.1898 120.034 84.2248C120.018 84.2597 120.01 84.2972 120.01 84.335C120.01 84.3728 120.018 84.4103 120.034 84.4453C120.05 84.4802 120.074 84.512 120.103 84.5388C120.133 84.5655 120.168 84.5867 120.207 84.6012C120.246 84.6157 120.288 84.6231 120.33 84.6231C120.372 84.623 120.413 84.6155 120.452 84.601C120.491 84.5865 120.526 84.5652 120.556 84.5384L121.927 83.3029V86.6372C121.927 86.7136 121.961 86.7868 122.021 86.8407C122.081 86.8947 122.162 86.9251 122.247 86.9251C122.331 86.9251 122.413 86.8947 122.473 86.8407C122.532 86.7868 122.566 86.7136 122.566 86.6372V83.3029L123.938 84.5384C123.998 84.592 124.079 84.622 124.163 84.6219C124.248 84.6218 124.329 84.5914 124.389 84.5376C124.448 84.4838 124.482 84.4108 124.482 84.3347C124.482 84.2585 124.449 84.1854 124.389 84.1314Z" fill="white"/>
<path d="M125.05 37.8668H94.5506C93.9294 37.8662 93.3339 37.6436 92.8947 37.248C92.4555 36.8524 92.2085 36.316 92.2078 35.7564V10.6748C92.2085 10.1153 92.4555 9.57886 92.8947 9.18323C93.3339 8.78761 93.9295 8.56507 94.5506 8.56445H125.05C125.671 8.56507 126.267 8.78761 126.706 9.18323C127.145 9.57886 127.392 10.1153 127.393 10.6748V35.7564C127.392 36.316 127.145 36.8524 126.706 37.248C126.267 37.6436 125.671 37.8662 125.05 37.8668Z" fill="white"/>
<path d="M125.052 38.2651H94.5521C93.8137 38.2643 93.1058 37.9998 92.5837 37.5295C92.0616 37.0592 91.7679 36.4215 91.7671 35.7564V10.6747C91.7679 10.0096 92.0616 9.37193 92.5837 8.90162C93.1058 8.43132 93.8137 8.16677 94.5521 8.16602H125.052C125.79 8.16677 126.498 8.43132 127.02 8.90162C127.542 9.37193 127.836 10.0096 127.837 10.6747V35.7564C127.836 36.4215 127.542 37.0592 127.02 37.5295C126.498 37.9998 125.79 38.2643 125.052 38.2651ZM94.5521 8.96272C94.0482 8.96326 93.5651 9.14381 93.2089 9.46475C92.8526 9.7857 92.6521 10.2208 92.6515 10.6747V35.7564C92.6521 36.2103 92.8526 36.6455 93.2089 36.9664C93.5651 37.2873 94.0482 37.4679 94.5521 37.4684H125.052C125.556 37.4679 126.039 37.2873 126.395 36.9664C126.751 36.6455 126.952 36.2103 126.952 35.7564V10.6747C126.952 10.2208 126.751 9.78568 126.395 9.46473C126.039 9.14379 125.556 8.96324 125.052 8.9627L94.5521 8.96272Z" fill="#CCCCCC"/>
<path d="M103.538 20.4507C105.638 20.4507 107.34 18.9174 107.34 17.0261C107.34 15.1348 105.638 13.6016 103.538 13.6016C101.439 13.6016 99.7366 15.1348 99.7366 17.0261C99.7366 18.9174 101.439 20.4507 103.538 20.4507Z" fill="#CCCCCC"/>
<path d="M118.735 25.6586H100.869C100.568 25.6586 100.28 25.5512 100.068 25.36C99.8558 25.1687 99.7366 24.9093 99.7366 24.6389C99.7366 24.3684 99.8558 24.1091 100.068 23.9178C100.28 23.7266 100.568 23.6191 100.869 23.6191H118.735C119.035 23.6191 119.323 23.7266 119.536 23.9178C119.748 24.1091 119.867 24.3684 119.867 24.6389C119.867 24.9093 119.748 25.1687 119.536 25.36C119.323 25.5512 119.035 25.6586 118.735 25.6586Z" fill="#CCCCCC"/>
<path d="M109.49 29.6881H100.869C100.568 29.6881 100.28 29.5806 100.068 29.3894C99.8559 29.1981 99.7366 28.9387 99.7366 28.6683C99.7366 28.3978 99.8559 28.1384 100.068 27.9471C100.28 27.7559 100.568 27.6484 100.869 27.6484H109.49C109.639 27.6482 109.787 27.6744 109.924 27.7255C110.062 27.7766 110.187 27.8517 110.292 27.9464C110.398 28.0411 110.481 28.1537 110.538 28.2775C110.595 28.4014 110.625 28.5342 110.625 28.6683C110.625 28.8023 110.595 28.9351 110.538 29.059C110.481 29.1828 110.398 29.2954 110.292 29.3901C110.187 29.4848 110.062 29.5599 109.924 29.611C109.787 29.6621 109.639 29.6883 109.49 29.6881Z" fill="#CCCCCC"/>
<path d="M93.916 45.2254C92.3283 45.2254 90.7763 44.8013 89.4562 44.0068C88.1362 43.2123 87.1073 42.083 86.4997 40.7617C85.8921 39.4404 85.7332 37.9865 86.0429 36.5839C86.3527 35.1812 87.1172 33.8928 88.2398 32.8815C89.3624 31.8703 90.7928 31.1816 92.3499 30.9026C93.9071 30.6236 95.5211 30.7668 96.9879 31.3141C98.4547 31.8614 99.7084 32.7882 100.59 33.9773C101.472 35.1664 101.943 36.5644 101.943 37.9945C101.943 39.9123 101.098 41.7515 99.5921 43.1075C98.0867 44.4636 96.045 45.2254 93.916 45.2254Z" fill="#CCCCCC"/>
<path d="M97.0829 37.2851H94.7074V35.1452C94.7069 34.9563 94.6232 34.7753 94.4748 34.6419C94.3263 34.5085 94.1252 34.4336 93.9155 34.4336C93.7058 34.4336 93.5047 34.5085 93.3563 34.6419C93.2078 34.7753 93.1242 34.9563 93.1237 35.1452V37.2851H90.7482C90.5381 37.2851 90.3367 37.3602 90.1882 37.494C90.0397 37.6277 89.9563 37.8092 89.9563 37.9983C89.9563 38.1875 90.0397 38.3689 90.1882 38.5027C90.3367 38.6365 90.5381 38.7116 90.7482 38.7116H93.1237V40.8514C93.1237 41.0406 93.2071 41.222 93.3556 41.3558C93.5041 41.4896 93.7055 41.5647 93.9155 41.5647C94.1256 41.5647 94.327 41.4896 94.4755 41.3558C94.624 41.222 94.7074 41.0406 94.7074 40.8514V38.7116H97.0829C97.2929 38.7116 97.4943 38.6364 97.6428 38.5027C97.7913 38.3689 97.8747 38.1875 97.8747 37.9983C97.8747 37.8091 97.7913 37.6277 97.6428 37.494C97.4943 37.3602 97.2929 37.2851 97.0829 37.2851Z" fill="white"/>
<path d="M92.9395 158.107C92.9235 158.107 92.9075 158.107 92.8913 158.106C92.7026 158.1 92.5183 158.053 92.3542 157.969C92.19 157.885 92.0509 157.766 91.9485 157.623C91.1819 156.591 90.2412 155.673 89.1603 154.902C88.5059 154.431 87.8221 153.993 87.1609 153.569C85.455 152.477 83.8484 151.448 82.9566 150.026C81.0122 146.925 83.302 142.607 86.5732 140.67C90.2423 138.498 95.0684 138.157 99.7371 138.112C100.222 138.108 100.708 138.105 101.194 138.105C109.606 138.108 118 138.8 126.273 140.171C129.024 140.628 131.903 141.188 134.217 142.548C136.518 143.899 137.916 146.026 137.78 147.968C137.58 150.803 134.244 152.922 131.206 153.475C128.311 154.003 125.303 153.646 122.118 153.269C121.415 153.186 120.688 153.1 119.969 153.025C112.157 152.211 97.4808 154.718 96.8599 154.826L96.2439 154.932L93.8538 157.702C93.7463 157.829 93.6078 157.931 93.4492 158.001C93.2906 158.071 93.1162 158.107 92.9395 158.107Z" fill="white"/>
<path d="M92.9392 158.505L92.8796 158.504C92.6194 158.497 92.3652 158.432 92.1387 158.317C91.9121 158.201 91.7199 158.038 91.5784 157.842C90.8375 156.845 89.9283 155.958 88.8839 155.213C88.2372 154.748 87.5594 154.314 86.9041 153.894C85.1588 152.776 83.5112 151.721 82.5713 150.222C80.507 146.93 82.8954 142.37 86.3299 140.337C90.0935 138.108 94.9955 137.76 99.7318 137.714C100.219 137.709 100.706 137.707 101.193 137.707C109.632 137.71 118.053 138.403 126.353 139.779C129.148 140.244 132.076 140.814 134.459 142.214C136.89 143.642 138.367 145.911 138.221 147.993C138.007 151.026 134.492 153.282 131.293 153.866C128.325 154.407 125.281 154.046 122.06 153.664C121.359 153.581 120.634 153.495 119.918 153.42C112.152 152.613 97.5602 155.11 96.9427 155.217L96.4903 155.295L94.2023 157.947C94.0536 158.121 93.8622 158.262 93.6432 158.359C93.4241 158.456 93.1832 158.506 92.9392 158.505ZM101.193 138.504C100.709 138.504 100.225 138.506 99.7412 138.511C95.1394 138.555 90.3886 138.887 86.8157 141.003C83.7079 142.843 81.5167 146.92 83.3413 149.83C84.1844 151.174 85.754 152.18 87.4156 153.244C88.0819 153.671 88.7698 154.112 89.4358 154.591C90.5531 155.388 91.5255 156.337 92.3177 157.404C92.3818 157.494 92.469 157.569 92.5719 157.621C92.6748 157.674 92.7903 157.704 92.9087 157.708L92.9392 157.709C93.0484 157.709 93.1564 157.687 93.2545 157.643C93.3525 157.6 93.438 157.536 93.504 157.458L95.9967 154.569L96.7762 154.434C97.3987 154.327 112.12 151.805 120.019 152.629C120.741 152.704 121.47 152.79 122.175 152.874C125.322 153.247 128.293 153.6 131.118 153.085C133.995 152.56 137.153 150.58 137.338 147.943C137.464 146.142 136.144 144.155 133.975 142.881C131.73 141.562 128.899 141.012 126.192 140.563C117.946 139.196 109.578 138.507 101.193 138.504Z" fill="#CCCCCC"/>
<path d="M127.73 144.277H94.7098C94.5196 144.276 94.3373 144.208 94.203 144.087C94.0686 143.965 93.9932 143.801 93.9932 143.63C93.9932 143.458 94.0686 143.294 94.203 143.173C94.3373 143.051 94.5196 142.983 94.7098 142.982H127.73C127.92 142.983 128.103 143.051 128.237 143.173C128.371 143.294 128.447 143.458 128.447 143.63C128.447 143.801 128.371 143.965 128.237 144.087C128.103 144.208 127.92 144.276 127.73 144.277Z" fill="#CCCCCC"/>
<path d="M127.728 148.251H94.7077C94.6132 148.252 94.5196 148.235 94.4322 148.203C94.3448 148.17 94.2653 148.123 94.1984 148.063C94.1314 148.003 94.0783 147.931 94.042 147.853C94.0057 147.774 93.9869 147.69 93.9868 147.605C93.9867 147.52 94.0053 147.435 94.0414 147.357C94.0775 147.278 94.1305 147.207 94.1973 147.147C94.2641 147.086 94.3434 147.039 94.4308 147.006C94.5181 146.974 94.6117 146.957 94.7061 146.957H127.728C127.918 146.957 128.1 147.026 128.235 147.147C128.369 147.268 128.445 147.433 128.445 147.604C128.445 147.776 128.369 147.94 128.235 148.061C128.1 148.183 127.918 148.251 127.728 148.251Z" fill="#CCCCCC"/>
<path d="M98.5579 152.22H94.7098C94.5196 152.22 94.3373 152.151 94.203 152.03C94.0686 151.909 93.9932 151.744 93.9932 151.573C93.9932 151.402 94.0686 151.237 94.203 151.116C94.3373 150.995 94.5196 150.926 94.7098 150.926H98.5579C98.7481 150.926 98.9304 150.995 99.0647 151.116C99.1991 151.237 99.2745 151.402 99.2745 151.573C99.2745 151.744 99.1991 151.909 99.0647 152.03C98.9304 152.151 98.7481 152.22 98.5579 152.22Z" fill="#CCCCCC"/>
<path d="M92.9041 165.378C95.546 165.378 97.6878 163.449 97.6878 161.069C97.6878 158.689 95.546 156.76 92.9041 156.76C90.2621 156.76 88.1204 158.689 88.1204 161.069C88.1204 163.449 90.2621 165.378 92.9041 165.378Z" fill="white"/>
<path d="M92.9078 165.43C91.9502 165.43 91.014 165.175 90.2177 164.695C89.4214 164.216 88.8008 163.535 88.4343 162.738C88.0678 161.941 87.9719 161.064 88.1587 160.218C88.3455 159.372 88.8067 158.595 89.4839 157.985C90.1611 157.375 91.0239 156.959 91.9631 156.791C92.9024 156.623 93.876 156.709 94.7608 157.039C95.6456 157.369 96.4018 157.928 96.9339 158.645C97.4659 159.363 97.7499 160.206 97.7499 161.069C97.7485 162.225 97.2378 163.334 96.3301 164.151C95.4223 164.969 94.1916 165.429 92.9078 165.43Z" fill="#CCCCCC"/>
<path d="M93.7587 162.092C93.7485 162.092 93.7383 162.092 93.7281 162.091C93.638 162.087 93.5499 162.066 93.4699 162.029C93.3899 161.991 93.3197 161.938 93.2644 161.874L92.465 160.949C92.4145 160.89 92.3773 160.823 92.3555 160.752C92.3336 160.68 92.3276 160.606 92.3378 160.532C92.348 160.459 92.3742 160.388 92.4148 160.324C92.4554 160.259 92.5098 160.203 92.5746 160.157L92.6034 160.137C92.6683 160.092 92.7425 160.058 92.8218 160.038C92.901 160.019 92.9839 160.013 93.0654 160.023C93.147 160.032 93.2258 160.055 93.2973 160.092C93.3687 160.129 93.4315 160.178 93.482 160.236C93.5223 160.283 93.5734 160.321 93.6318 160.348C93.6901 160.376 93.7542 160.391 93.8199 160.394C93.8855 160.397 93.9511 160.387 94.0121 160.365C94.0731 160.343 94.1281 160.309 94.1733 160.266L95.7965 158.723C95.9107 158.614 96.0681 158.551 96.234 158.547C96.3999 158.543 96.5608 158.598 96.6814 158.701L96.708 158.724C96.7677 158.775 96.8157 158.836 96.8492 158.903C96.8827 158.971 96.9011 159.044 96.9033 159.118C96.9055 159.192 96.8915 159.266 96.8621 159.335C96.8327 159.404 96.7884 159.467 96.7319 159.521L94.2129 161.916C94.1545 161.972 94.0841 162.016 94.006 162.046C93.9279 162.077 93.8437 162.092 93.7587 162.092Z" fill="white"/>
<path d="M32.3365 136.003C32.1451 136.004 31.9541 136.02 31.7659 136.051L28.6343 118.193L31.7716 101.001C31.969 99.9197 31.7038 98.8111 31.0294 97.8988C30.355 96.9866 29.3217 96.3386 28.1378 96.0857C26.954 95.8327 25.7077 95.9936 24.6503 96.5358C23.5929 97.078 22.8031 97.9612 22.4402 99.0073C21.2641 102.397 20.6821 105.932 20.7152 109.484L20.8246 121.208L29.1734 139.215C29.2463 139.764 29.494 140.283 29.8865 140.708C30.279 141.133 30.7996 141.448 31.3858 141.613C31.9719 141.778 32.5985 141.787 33.1903 141.639C33.782 141.491 34.3137 141.192 34.7213 140.778C35.1288 140.365 35.395 139.854 35.4877 139.307C35.5803 138.76 35.4956 138.2 35.2437 137.696C34.9917 137.191 34.5833 136.763 34.0675 136.463C33.5518 136.162 32.9507 136.003 32.3365 136.003Z" fill="#FFB8B8"/>
<path d="M19.0415 101.694C19.0407 100.799 19.2357 99.9131 19.6153 99.0863C19.9949 98.2595 20.5516 97.5082 21.2537 96.8753C21.9557 96.2424 22.7894 95.7403 23.7069 95.3978C24.6245 95.0552 25.608 94.8789 26.6013 94.8789C27.5945 94.8789 28.578 95.0552 29.4956 95.3978C30.4132 95.7403 31.2468 96.2424 31.9489 96.8753C32.651 97.5082 33.2077 98.2595 33.5873 99.0863C33.9668 99.9131 34.1618 100.799 34.1611 101.694L29.2472 117.308L20.7139 116.926L19.0415 101.694Z" fill="#2F2E41"/>
<path d="M36.9716 238.658L41.8506 238.657L44.1717 221.705L36.9707 221.705L36.9716 238.658Z" fill="#FFB8B8"/>
<path d="M50.3631 243.611L43.0314 239.05V236.074L42.1998 236.118L36.9729 236.401L35.3189 236.489L34.3771 246.662L34.3462 247.001H37.8088L37.8794 246.662L38.4278 244.057L39.8296 246.662L40.011 247.001H49.1913C49.7379 247 50.2619 246.804 50.6488 246.456C51.0357 246.108 51.2542 245.637 51.2564 245.144C51.2567 244.843 51.1756 244.545 51.0199 244.278C50.8643 244.011 50.6389 243.782 50.3631 243.611Z" fill="#2F2E41"/>
<path d="M7.70972 228.525L11.5866 231.193L24.858 218.993L19.1361 215.055L7.70972 228.525Z" fill="#FFB8B8"/>
<path d="M15.0115 239.784L12.2603 232.15L14.266 229.786L13.5758 229.366L9.23203 226.731L7.85875 225.896L0.252768 233.465L0 233.717L2.75124 235.611L3.03559 235.38L5.22739 233.61L4.58518 236.447L4.50105 236.815L11.7954 241.836C12.2304 242.135 12.7787 242.266 13.3205 242.201C13.8624 242.136 14.3538 241.881 14.6875 241.491C14.8911 241.251 15.027 240.971 15.0834 240.673C15.1399 240.376 15.1152 240.071 15.0115 239.784Z" fill="#2F2E41"/>
<path d="M27.5022 155.296L32.3798 168.78C32.3798 168.78 34.1133 183.168 35.9662 186.355C36.3123 187.002 36.5506 187.692 36.6738 188.402C36.7268 188.641 36.7666 188.892 36.802 189.143C36.8728 189.641 36.9214 190.155 36.9524 190.673C37.0451 192.873 36.9401 195.076 36.6384 197.261C35.7628 197.947 35.1216 204.125 34.6749 211.745C34.6263 212.538 34.5806 213.344 34.5379 214.163C34.4494 215.816 34.3698 217.513 34.2991 219.218C33.7905 231.065 34.0736 228.531 34.0736 228.531C46.4379 230.575 45.9294 226.89 45.9294 226.89C45.9294 226.89 50.1746 209.805 51.2713 202.022C51.404 201.113 51.4836 200.532 51.5013 200.365C51.5499 199.541 51.7179 198.727 52.001 197.943C52.2408 197.635 52.4551 197.311 52.6422 196.975L52.6439 196.974L52.6453 196.973L52.6463 196.972L52.6466 196.971C53.5212 195.26 54.0141 193.411 54.0971 191.529C54.1597 190.714 54.1627 189.895 54.1059 189.079C54.0363 184.305 54.4851 179.535 55.4459 174.839C56.2197 171.632 55.7156 165.434 55.0302 160.124C54.7516 157.933 54.4376 155.894 54.1767 154.28C54.1634 154.213 54.1546 154.145 54.1457 154.077C53.8097 152.05 53.562 150.743 53.562 150.743C53.562 150.743 54.6897 147.262 53.8539 145.975C53.4691 145.397 53.5222 144.035 53.6858 142.689C53.8892 141.047 54.2696 139.518 54.2696 139.518L31.3053 135.873C30.8233 136.594 30.3943 137.291 29.9742 137.964C22.3814 150.604 27.5022 155.296 27.5022 155.296Z" fill="#2F2E41"/>
<path d="M20.9396 97.6107C21.1951 96.9759 21.6238 96.4093 22.1862 95.963C22.7487 95.5166 23.4267 95.205 24.1579 95.0566C25.2418 94.779 26.3698 94.668 27.4947 94.7281C30.7875 94.845 33.1083 89.2642 36.3689 89.6945C36.3689 89.6945 39.4378 88.7079 41.839 90.5157C44.0204 92.158 45.5242 96.6247 46.084 96.3706C46.3489 96.3168 46.6237 96.3169 46.8885 96.371C49.1427 96.6564 51.194 97.698 52.6322 99.2874C54.0704 100.877 54.7893 102.897 54.6451 104.943L54.4078 108.566C54.4078 108.566 56.0852 110.841 53.651 114.857L55.0641 129.023C55.0641 129.023 57.4183 148.758 53.881 151.567C50.3437 154.376 37.3135 142.13 37.3135 142.13C37.3135 142.13 27.3032 140.693 27.8958 139.026C28.4884 137.359 31.5972 132.735 31.5972 132.735C31.6695 132.477 31.6608 132.206 31.5723 131.952C31.4838 131.699 31.3188 131.472 31.0958 131.298C30.3391 130.863 31.187 129.877 31.2508 129.787C31.1778 129.852 30.6035 130.394 30.1659 129.253C29.7283 128.111 31.0776 126.674 31.0776 126.674L27.2667 119.283L24.2673 113.444L23.9026 112.771L21.3772 108.073L21.3186 107.964C19.9855 105.46 19.6904 102.61 20.4868 99.9271C20.75 99.1762 20.9022 98.3974 20.9396 97.6107Z" fill="#6D7E5E"/>
<path d="M13.011 218.412C22.0808 226.252 23.9072 222.918 23.9072 222.918C23.9072 222.918 28.8114 217.831 34.6751 211.744C36.7801 209.561 39.0044 207.251 41.1713 205C44.1651 201.889 47.0439 198.894 49.3346 196.512C51.8685 193.871 53.6728 191.982 54.0973 191.528C54.1599 190.713 54.1629 189.894 54.1061 189.078C54.0364 184.304 54.4852 179.534 55.446 174.838C56.2199 171.631 55.7158 165.433 55.0303 160.123C54.0044 162.047 52.8192 164.33 51.8375 166.437C50.7408 168.783 49.8874 170.906 49.7547 172.061C49.3346 175.619 43.6521 181.498 43.6521 181.498L43.5858 181.51C42.6527 181.733 40.0215 184.49 36.674 188.401C27.5289 199.085 13.011 218.412 13.011 218.412Z" fill="#2F2E41"/>
<path d="M87.3423 93.854C87.3649 94.0252 87.4045 94.1942 87.4606 94.3591L68.12 99.1919L48.8015 98.3386C47.5862 98.2849 46.3936 98.6483 45.4641 99.3556C44.5346 100.063 43.9374 101.061 43.793 102.149C43.6486 103.238 43.9677 104.335 44.6859 105.219C45.4041 106.104 46.4681 106.711 47.6631 106.916C51.5359 107.584 55.5005 107.703 59.414 107.269L72.3331 105.838L91.2442 96.3197C91.8417 96.1919 92.3856 95.9113 92.8102 95.5117C93.2349 95.112 93.5223 94.6104 93.6379 94.0671C93.7535 93.5237 93.6923 92.9619 93.4618 92.4491C93.2312 91.9364 92.8411 91.4946 92.3383 91.1768C91.8356 90.8591 91.2416 90.6791 90.6279 90.6583C90.0142 90.6375 89.4068 90.7769 88.879 91.0597C88.3512 91.3426 87.9253 91.7568 87.6527 92.2525C87.3801 92.7482 87.2723 93.3043 87.3423 93.854Z" fill="#FFB8B8"/>
<path d="M51.0148 109.652C50.0283 109.754 49.029 109.68 48.0742 109.435C47.1193 109.189 46.2276 108.776 45.45 108.219C44.6724 107.663 44.0241 106.974 43.5421 106.192C43.0601 105.41 42.7539 104.55 42.6411 103.661C42.5282 102.772 42.6108 101.872 42.8841 101.012C43.1575 100.152 43.6163 99.3494 44.2343 98.6492C44.8523 97.949 45.6174 97.3653 46.4859 96.9315C47.3544 96.4978 48.3093 96.2224 49.296 96.1211L67.0758 98.7437L67.6246 106.424L51.0148 109.652Z" fill="#2F2E41"/>
<path d="M47.916 83.7277C46.819 85.5348 45.0714 86.9514 42.9612 87.7442C40.851 88.5371 38.5039 88.659 36.3065 88.0898C34.1092 87.5206 32.1925 86.2943 30.8722 84.6128C29.5519 82.9313 28.9066 80.8949 29.0428 78.839C29.1789 76.783 30.0883 74.8302 31.6211 73.302C33.1539 71.7738 35.2189 70.7614 37.4758 70.4315C39.7327 70.1016 42.047 70.4739 44.0377 71.4871C46.0283 72.5004 47.5765 74.094 48.4273 76.0057C48.4734 76.1094 48.5149 76.2132 48.5563 76.3211C49.0373 77.5262 49.2289 78.8095 49.1186 80.0863C49.0082 81.3631 48.5983 82.6042 47.916 83.7277Z" fill="#FFB6B6"/>
<path d="M49.3621 76.32C48.9291 75.2287 49.118 75.7971 48.6804 74.71C48.8212 75.2456 48.7778 75.8071 48.556 76.32H36.5747V70.0461C40.0848 68.793 43.5166 67.7266 45.5895 70.0461C47.4367 70.0462 49.2082 70.7072 50.5143 71.8838C51.8205 73.0603 52.5543 74.6561 52.5544 76.32H49.3621Z" fill="#2F2E41"/>
<path d="M45.1175 93.7582C45.1083 93.642 45.0944 93.5217 45.076 93.4055C44.915 92.5532 44.6541 91.7186 44.2975 90.9159C43.952 90.0404 43.6019 89.1607 43.2519 88.2852C43.7027 89.8744 43.5652 91.5528 42.8603 93.0653C40.8381 91.6462 42.1141 88.4013 39.47 88.4013C33.1132 88.4013 26.572 83.7582 26.572 78.0279C26.572 72.3017 29.299 68.0195 35.6559 68.0195C42.0174 68.0195 47.1766 70.6419 47.3009 76.3681C39.47 78.0279 46.5961 93.1773 45.1175 93.7582Z" fill="#2F2E41"/>
<path d="M27.3656 77.1492C31.4361 77.1492 34.7359 74.1768 34.7359 70.5101C34.7359 66.8435 31.4361 63.8711 27.3656 63.8711C23.2951 63.8711 19.9954 66.8435 19.9954 70.5101C19.9954 74.1768 23.2951 77.1492 27.3656 77.1492Z" fill="#2F2E41"/>
</svg>
