<svg width="169" height="205" viewBox="0 0 169 205" fill="none" xmlns="http://www.w3.org/2000/svg">
<path d="M103.872 91.3813C103.668 91.689 103.131 92.0554 102.922 92.3582L103.145 91.6623L103.069 91.5012L102.594 90.5243L90.492 65.4633L90.4873 65.4585L69.9724 22.9949V22.9901L69.5017 22.0181V22.0132L59.3489 0.996382L58.8689 0C59.23 0.00976999 59.5912 0.0244241 59.9525 0.0439592L60.4374 1.04522L70.5619 22.0132L70.5665 22.0181L71.0372 22.9901V22.9949L91.029 64.379V64.3839L91.4997 65.3559V65.3608L103.601 90.4022L103.763 90.7392L103.872 91.3813Z" fill="#6D7E5E"/>
<path d="M102.507 22.8558H12.0454C12.2877 22.5432 12.5343 22.2307 12.7907 21.9229H101.762C102.018 22.2307 102.265 22.5433 102.507 22.8558Z" fill="#6D7E5E"/>
<path d="M114.328 64.3691C114.299 64.6817 114.265 64.9942 114.222 65.3021H90.6895V64.3691H114.328Z" fill="#3F3D56"/>
<path d="M103.417 90.4912H14.7737V91.4241H103.417V90.4912Z" fill="#6D7E5E"/>
<path d="M103.302 91.4153H103.412V91.2543C103.378 91.3103 103.342 91.364 103.302 91.4153ZM102.57 22.9917C102.328 22.6648 102.081 22.338 101.824 22.016C96.774 15.5147 90.4303 10.1939 83.2165 6.40905C76.0027 2.62423 68.0849 0.462513 59.9919 0.0682982C59.6307 0.0487694 59.2694 0.0341418 58.9081 0.0244032C58.366 0.00976582 57.824 8.32114e-06 57.2773 8.32114e-06C49.4146 -0.00429975 41.6364 1.66423 34.4339 4.90027C27.2314 8.13631 20.7609 12.8696 15.4311 18.8011C15.1031 19.1573 14.7893 19.5183 14.4803 19.8793C13.8765 20.5769 13.2933 21.2891 12.7307 22.016C12.474 22.338 12.2269 22.6648 11.9844 22.9917C3.95003 33.7394 -0.194128 47.0183 0.261186 60.5557C0.716499 74.0931 5.74298 87.0473 14.4803 97.2011C14.7893 97.5621 15.1031 97.9231 15.4311 98.2792C21.1765 104.664 28.2368 109.654 36.0982 112.886C43.9596 116.118 52.4244 117.511 60.8766 116.964C69.3288 116.417 77.5557 113.943 84.9589 109.723C92.3621 105.502 98.7552 99.6415 103.673 92.5666C103.882 92.2642 104.092 91.9617 104.296 91.6544C109.568 83.8163 112.881 74.7679 113.942 65.3064C113.985 64.9845 114.018 64.6576 114.047 64.3307C114.232 62.4282 114.326 60.498 114.327 58.5402C114.342 45.6835 110.208 33.1837 102.57 22.9917ZM112.987 65.3064C111.952 74.3881 108.805 83.0816 103.811 90.6543C103.683 90.8543 103.549 91.0543 103.412 91.2543C103.378 91.3103 103.342 91.364 103.302 91.4153C103.269 91.469 103.231 91.5227 103.193 91.5763C98.3433 98.6866 91.9879 104.578 84.6032 108.809C77.2185 113.04 68.9962 115.501 60.5528 116.007C52.1093 116.513 43.6638 115.051 35.8493 111.731C28.0349 108.41 21.0544 103.318 15.4311 96.8352C15.1031 96.4644 14.7846 96.0937 14.4803 95.7131C6.1204 85.6065 1.42406 72.8441 1.18751 59.59C0.950963 46.3359 5.18876 33.4056 13.1824 22.9916C13.4345 22.6648 13.6864 22.3379 13.9477 22.016C14.1191 21.7964 14.2948 21.5818 14.4803 21.3671C14.7846 20.9866 15.1031 20.6159 15.4311 20.2451C20.6831 14.1813 27.128 9.32867 34.341 6.0072C41.554 2.68573 49.3713 0.970866 57.2773 0.975656C57.9857 0.975656 58.6893 0.990284 59.3881 1.01955C59.7542 1.02931 60.1156 1.04883 60.4768 1.06834C68.2139 1.52219 75.7752 3.61816 82.6826 7.22379C89.59 10.8294 95.6933 15.8663 100.607 22.016C100.868 22.3379 101.12 22.6648 101.372 22.9916C110.343 34.697 114.545 49.5138 113.096 64.3307C113.063 64.6576 113.029 64.9845 112.987 65.3064ZM103.302 91.4153H103.412V91.2543C103.378 91.3103 103.342 91.364 103.302 91.4153Z" fill="#CCCCCC"/>
<path opacity="0.2" d="M85.6882 44.1331C83.6593 48.3314 80.0979 51.5146 75.6593 52.7022C75.6519 52.7061 75.6436 52.7079 75.6353 52.7071C74.5214 52.9898 73.3803 53.1452 72.2329 53.1703H72.122C71.9196 53.1752 71.7172 53.1752 71.5148 53.1703C67.3713 53.0646 63.4351 51.295 60.558 48.2444C57.6809 45.1937 56.0943 41.1075 56.1414 36.8698C56.1561 35.8718 56.2593 34.8773 56.4498 33.8984C56.4498 33.8935 56.4546 33.8886 56.4546 33.8837C56.9781 32.1693 57.9221 30.6204 59.1968 29.3848C58.7687 31.4728 58.7508 33.6271 59.1441 35.7222C59.5374 37.8174 60.3341 39.8118 61.4879 41.5894C62.6416 43.367 64.1295 44.8924 65.8649 46.0769C67.6003 47.2613 69.5486 48.0813 71.5967 48.4891C71.7461 48.5186 71.8955 48.5482 72.0449 48.5728C72.4786 48.6468 72.9123 48.701 73.3509 48.7355C75.6103 48.9229 77.8825 48.6087 80.012 47.8143C82.1414 47.0199 84.0777 45.7641 85.6882 44.1331Z" fill="black"/>
<path d="M105.566 28.0564C95.726 26.0291 85.8543 24.19 75.8626 23.0645C66.3887 21.9187 56.8348 21.6347 47.3123 22.2156C38.7124 22.8121 30.0387 24.2107 21.9597 27.3991C15.7342 29.8561 9.09803 33.5734 5.73522 39.7728C2.49362 45.7487 3.75795 52.6402 7.28764 58.1538C11.5346 64.7878 18.1571 69.3338 25.0423 72.6564C32.8818 76.4395 41.2668 78.8917 49.6626 80.9772C53.9207 82.035 58.2018 82.9911 62.4833 83.9424C63.3765 84.1408 63.7581 82.7302 62.8617 82.531C54.2277 80.6127 45.5687 78.6881 37.149 75.9112C29.3576 73.3415 21.3841 70.0496 15.0035 64.6536C9.8417 60.2883 4.93384 53.9121 5.23852 46.6626C5.54566 39.3544 11.5092 34.2517 17.3542 31.1109C24.6589 27.1858 32.9581 25.2738 41.0903 24.2746C50.4018 23.2077 59.7922 23.0764 69.1285 23.8825C81.6063 24.8587 93.8995 27.1232 106.146 29.6597" fill="#6D7E5E"/>
<path d="M115.342 31.5497C113.286 30.0725 110.965 29.0229 108.511 28.4609C106.057 27.8989 103.519 27.8354 101.042 28.274C98.5641 28.7127 96.1954 29.645 94.0709 31.0176C91.9464 32.3902 90.1077 34.1763 88.6598 36.2739C82.5704 45.0955 76.4603 68.2279 80.7734 81.6287C93.6386 67.7647 113.403 66.3241 119.972 58.7713C126.992 50.7009 123.988 37.7622 115.342 31.5497Z" fill="#F33A00"/>
<path d="M104.099 51.7756C107.489 51.7756 110.236 48.8518 110.236 45.2452C110.236 41.6386 107.489 38.7148 104.099 38.7148C100.71 38.7148 97.9626 41.6386 97.9626 45.2452C97.9626 48.8518 100.71 51.7756 104.099 51.7756Z" fill="white"/>
<path d="M75.6884 88.6267C77.9479 88.6267 79.7796 86.7471 79.7796 84.4286C79.7796 82.11 77.9479 80.2305 75.6884 80.2305C73.4289 80.2305 71.5972 82.11 71.5972 84.4286C71.5972 86.7471 73.4289 88.6267 75.6884 88.6267Z" fill="#F33A00"/>
<path opacity="0.2" d="M110.735 43.567C111.155 44.2916 111.429 45.0923 111.542 45.9236C111.654 46.7549 111.604 47.6004 111.392 48.4119C111.18 49.2233 110.812 49.9849 110.308 50.653C109.805 51.3211 109.175 51.8827 108.456 52.3057C107.737 52.7288 106.942 53.005 106.116 53.1185C105.291 53.2321 104.452 53.1808 103.646 52.9677C102.841 52.7545 102.085 52.3835 101.422 51.876C100.758 51.3685 100.201 50.7344 99.781 50.0099C100.913 51.0103 102.362 51.5723 103.867 51.5952C105.373 51.618 106.838 51.1003 107.999 50.1347C109.161 49.1691 109.943 47.8186 110.207 46.3249C110.47 44.8312 110.197 43.2919 109.437 41.9824C109.951 42.4366 110.39 42.9717 110.735 43.567Z" fill="#231F20"/>
<path opacity="0.2" d="M119.967 58.7138C113.387 66.2862 93.591 67.7306 80.7052 81.6305C80.3031 80.3593 79.9935 79.0594 79.7791 77.7416C92.6584 65.1052 111.353 63.5083 117.71 56.192C123.399 49.6437 122.514 39.8994 117.379 33.1191C124.421 39.7858 126.41 51.2988 119.967 58.7138Z" fill="#231F20"/>
<path d="M148.875 201.133H145.179L143.421 185.273H148.876L148.875 201.133Z" fill="#FFB6B6"/>
<path d="M150.239 204.865L137.51 204.865V204.701C137.511 203.364 138.033 202.083 138.962 201.138C139.891 200.193 141.151 199.662 142.465 199.662H142.465L144.79 197.868L149.128 199.662L150.239 199.662L150.239 204.865Z" fill="#2F2E41"/>
<path d="M133.874 198.389L130 199.267L124.782 184.701L130.5 183.407L133.874 198.389Z" fill="#FFB6B6"/>
<path d="M135.692 202.033L123.123 204.864L123.087 204.705C122.794 203.411 123.029 202.054 123.739 200.932C124.449 199.81 125.577 199.015 126.875 198.723L126.875 198.723L128.778 196.468L133.455 197.241L134.552 196.993L135.692 202.033Z" fill="#2F2E41"/>
<path d="M153.971 105.509C155.823 111.233 155.627 117.446 153.525 124.114L152.627 161.658C154.112 163.333 155.045 170.162 152.756 175.052C149.701 181.581 151.806 190.611 149.646 194.943H143.381L141.841 177.306L140.485 175.317L140.279 159.41C139.447 157.392 138.482 155.39 140.175 153.052L140.13 150.289L139.889 135.56L130.441 149.714C130.172 152.918 128.574 154.596 126.458 155.681L129.384 168.912C134.502 173.4 133.25 180.345 133.334 186.775L135.013 194.362L127.302 195.068L123.899 184.779L120.073 178.439L113.419 153.091L118.06 142.057L119.956 137.548L130.547 112.365L153.971 105.509Z" fill="#2F2E41"/>
<path d="M88.4149 84.9005C88.7286 85.2032 89.1071 85.4357 89.5238 85.5817C89.9405 85.7277 90.3852 85.7836 90.8266 85.7455C91.2681 85.7074 91.6955 85.5761 92.0788 85.361C92.4621 85.146 92.792 84.8523 93.0452 84.5006L103.417 87.3188L101.714 82.1633L92.1264 80.2775C91.487 79.9055 90.7288 79.7732 89.9952 79.9055C89.2617 80.0378 88.6039 80.4256 88.1464 80.9955C87.6889 81.5653 87.4636 82.2776 87.5131 82.9973C87.5626 83.717 87.8834 84.3942 88.4149 84.9005Z" fill="#FFB8B8"/>
<path d="M96.9314 80.5774L106.936 80.5019C109.634 79.7256 112.478 79.6593 115.207 80.309L115.738 80.4354L119.913 79.9481C122.402 74.8271 127.021 70.1971 133.221 65.932C134.156 65.1564 135.24 64.5934 136.401 64.2801C137.563 63.9667 138.776 63.9102 139.96 64.1141C141.145 64.318 142.274 64.7778 143.273 65.4632C144.272 66.1487 145.119 67.0441 145.758 68.0907C146.911 69.9853 147.317 72.2621 146.893 74.4548C146.468 76.6476 145.246 78.5903 143.475 79.8854L124.582 91.3182C122.925 92.3213 121.042 92.863 119.119 92.8898L119.073 92.9144L108.296 88.7583L102.752 88.0322L95.2346 85.7835L96.9314 80.5774Z" fill="#6D7E5E"/>
<path d="M136.829 56.5309C141.976 56.5309 146.148 52.2497 146.148 46.9686C146.148 41.6875 141.976 37.4062 136.829 37.4062C131.683 37.4062 127.51 41.6875 127.51 46.9686C127.51 52.2497 131.683 56.5309 136.829 56.5309Z" fill="#FFB8B8"/>
<path d="M145.687 53.1963C146.381 52.1753 146.873 50.54 147.164 49.3447C147.553 47.7709 147.616 46.1304 147.351 44.5295C147.086 42.9286 146.498 41.403 145.624 40.0516C145.302 39.5008 144.84 39.0512 144.288 38.7511C143.722 38.4903 142.975 38.5525 142.58 39.0459C142.579 38.6129 142.491 38.1848 142.324 37.788C142.156 37.3912 141.911 37.034 141.604 36.7386C140.985 36.1511 140.242 35.7204 139.434 35.4805C137.877 34.9908 136.22 34.945 134.64 35.348C133.059 35.751 131.614 36.5877 130.458 37.7693C130.006 38.2434 130.167 35.8745 129.665 36.2918C129.179 36.74 128.542 36.9743 127.891 36.9445C127.25 36.8741 126.071 39.2294 126.065 38.5648C125.39 39.2615 125.093 42.2 125.304 43.16C125.515 44.1201 128.653 43.6958 129.552 44.0248C130.148 44.2428 130.796 44.2501 131.413 44.392C132.51 44.6844 133.466 45.381 134.099 46.3502C134.732 47.3195 135 48.4943 134.85 49.6529C135.245 49.1054 135.723 48.6273 136.266 48.2369C136.539 48.0442 136.853 47.9216 137.182 47.8793C137.51 47.837 137.844 47.8762 138.155 47.9937C138.436 48.149 138.683 48.3618 138.881 48.6191C139.079 48.8764 139.223 49.1727 139.306 49.4898C139.511 50.1106 139.59 50.7696 139.798 51.389C140.409 53.2065 140.724 55.1144 142.426 55.5453C143.769 55.8854 144.739 54.5904 145.687 53.1963Z" fill="#2F2E41"/>
<path d="M154.784 103.442L153.761 101.319C152.509 93.2717 151.272 85.7655 152.953 79.0136C153.058 73.1194 151.302 67.5821 146.427 64.5583L144.227 63.1936L143.114 60.2637L132.862 60.5235L132.832 64.3642L129.16 70.44V70.465L129.389 103.526L130.403 106.938L128.873 110.907L129.685 113.44L149.896 110.087L152.247 109.696C152.518 109.606 152.78 109.487 153.028 109.342C153.872 108.856 154.533 108.09 154.905 107.167C154.926 107.113 154.944 107.063 154.962 107.01C155.121 106.579 155.212 106.125 155.234 105.664C155.27 104.896 155.116 104.13 154.784 103.442Z" fill="#6D7E5E"/>
<path opacity="0.2" d="M155.24 105.717C155.218 106.181 155.125 106.639 154.965 107.073L153.003 109.423C152.751 109.57 152.485 109.689 152.21 109.78L149.826 110.174L153.275 103.49L145.694 86.3848L155.24 105.717Z" fill="black"/>
<path d="M163.443 125.455C163.061 125.188 162.742 124.838 162.506 124.43C162.271 124.021 162.125 123.565 162.08 123.093C162.034 122.621 162.09 122.144 162.243 121.696C162.396 121.249 162.643 120.841 162.966 120.502L157.967 110.175L163.754 110.899L167.614 120.595C168.132 121.191 168.42 121.961 168.422 122.76C168.425 123.559 168.142 124.331 167.628 124.93C167.114 125.529 166.404 125.913 165.632 126.01C164.861 126.107 164.082 125.91 163.443 125.455Z" fill="#FFB8B8"/>
<path d="M143.421 89.9821L147.164 89.4455C147.164 89.4455 147.526 95.3035 149.317 96.1913C151.107 97.0791 150.504 97.2252 150.715 98.165C150.926 99.1048 151.882 100.525 153.3 101.173C154.719 101.82 161.171 118.104 161.171 118.104L166.604 116.789C166.102 115.376 165.771 113.902 165.619 112.404C165.428 110.138 162.954 104.791 162.139 103.997C161.324 103.204 161.646 101.804 161.224 99.9248C160.801 98.0452 161.095 99.7881 160.391 96.6553C159.687 93.5226 151.773 74.7483 151.442 71.8558C151.11 68.9633 147.227 67.2607 147.227 67.2607L144.208 67.9913L143.421 89.9821Z" fill="#6D7E5E"/>
<path d="M48.1864 30.3211C52.5799 30.3211 56.1416 26.6664 56.1416 22.1581C56.1416 17.6498 52.5799 13.9951 48.1864 13.9951C43.7929 13.9951 40.2312 17.6498 40.2312 22.1581C40.2312 26.6664 43.7929 30.3211 48.1864 30.3211Z" fill="#E4AB00"/>
<path d="M49.5962 29.4985C49.3682 28.7496 48.9273 28.0839 48.3277 27.5834C47.728 27.0828 46.9958 26.7692 46.2211 26.6811C46.2035 26.6786 46.1869 26.6819 46.1695 26.6808C46.147 26.6739 46.124 26.6686 46.1007 26.6649C42.4142 26.1863 38.1587 27.9573 36.6222 31.4677C36.2473 30.9543 35.7537 30.5402 35.1838 30.2613C34.614 29.9824 33.9851 29.847 33.3515 29.8669C32.5346 29.9216 31.7542 30.2278 31.1167 30.7439C30.4792 31.26 30.0156 31.9609 29.7889 32.7512C29.7648 32.8479 29.772 32.9498 29.8094 33.0422C29.8468 33.1345 29.9125 33.2125 29.9971 33.2649C30.2405 33.4721 30.529 33.6192 30.8393 33.6943C31.5088 33.8367 32.1806 33.9672 32.8549 34.0858C34.1706 34.317 35.4932 34.504 36.8226 34.6467C39.5213 34.9372 42.2367 35.0403 44.9494 34.9553C45.8529 34.927 46.7242 34.8968 47.5521 34.4963C48.1543 34.1975 48.6689 33.7465 49.0451 33.1877C49.3996 32.6505 49.6327 32.0418 49.7279 31.4044C49.8231 30.7671 49.7781 30.1165 49.5962 29.4985Z" fill="#E6ECD6"/>
<path d="M73.4146 48.087C73.4146 48.3556 73.4062 48.622 73.3893 48.8861C73.2949 50.4094 72.9228 51.9005 72.2926 53.2807C72.2877 53.2925 72.2819 53.3034 72.2771 53.3144C72.2478 53.3784 72.2176 53.4424 72.1867 53.5056C71.9993 53.896 71.7913 54.2754 71.5638 54.6423C70.5246 56.3266 69.1002 57.7203 67.4165 58.7001C65.7328 59.6799 63.8416 60.2158 61.9101 60.2604L62.0265 67.1853L63.5451 66.3584L63.8163 66.8914L62.0379 67.8598L62.2554 80.7211L62.2578 80.8929L61.0836 81.1632L61.086 80.9906L61.4557 60.2612C59.901 60.2382 58.3663 59.8959 56.9405 59.2544C55.5148 58.6129 54.2265 57.6849 53.1504 56.5243C53.0763 56.4451 53.003 56.3634 52.9313 56.2826L52.9232 56.2733C52.0266 55.2622 51.3015 54.1019 50.7785 52.8412C50.7899 52.8546 50.8021 52.8673 50.8135 52.8807C45.9615 40.2715 48.7843 34.4262 56.3976 37.1868C56.4383 37.1657 56.4798 37.1455 56.5205 37.1245C59.1834 35.7981 62.2309 35.5547 65.0591 36.4426C67.8873 37.3305 70.2897 39.2848 71.7902 41.9182C71.8618 42.0428 71.9311 42.17 71.9978 42.298C72.9298 44.0751 73.4169 46.0653 73.4146 48.087Z" fill="#6D7E5E"/>
<path d="M87.4119 37.2469C87.268 39.6616 86.6547 42.0231 85.6076 44.1944C83.5927 48.3483 80.0559 51.4978 75.648 52.6728C75.6406 52.6767 75.6323 52.6784 75.624 52.6777C74.5149 52.9723 73.3765 53.1375 72.2308 53.1701H72.1351C72.0154 53.1749 71.8958 53.1749 71.7761 53.1749C71.6948 53.1749 71.6134 53.1749 71.532 53.1701C67.4282 53.1056 63.5139 51.3996 60.6342 48.4204C57.7544 45.4413 56.1404 41.4279 56.1404 37.2469V37.0714C56.1475 36.0548 56.2925 35.0442 56.5711 34.0681C56.5711 34.0632 56.5759 34.0583 56.5759 34.0535C57.0957 32.3572 58.0332 30.8248 59.2991 29.6022C62.4339 26.4429 67.397 24.4586 71.7761 21.3188C81.3672 14.4444 88.4121 21.2847 87.4119 37.2469Z" fill="#6D7E5E"/>
<path d="M72.4212 63.1442L74.7787 61.8803L74.419 61.1842L72.4054 62.2639L72.254 53.4064V53.4053L72.2504 53.2177V53.1843L72.1722 48.6403L72.0626 42.2361L71.9786 37.3154H71.9347L71.8525 41.8573V41.8584L71.7314 48.5584L71.6478 53.1813L71.6474 53.2199L71.6232 54.5389L71.1453 80.998L71.1421 81.1727L72.737 81.6287L72.7341 81.4525L72.4212 63.1442Z" fill="#3F3D56"/>
<path d="M66.4158 18.3032C66.1878 17.5543 65.7469 16.8886 65.1473 16.388C64.5476 15.8875 63.8154 15.5739 63.0406 15.4858C63.0231 15.4833 63.0065 15.4866 62.9891 15.4855C62.9665 15.4786 62.9435 15.4732 62.9203 15.4696C59.2337 14.991 54.9782 16.762 53.4418 20.2724C53.0669 19.759 52.5733 19.3449 52.0034 19.066C51.4336 18.7871 50.8047 18.6517 50.1711 18.6716C49.3542 18.7262 48.5738 19.0325 47.9363 19.5486C47.2988 20.0647 46.8352 20.7656 46.6085 21.5559C46.5844 21.6526 46.5915 21.7545 46.6289 21.8469C46.6664 21.9392 46.7321 22.0172 46.8166 22.0695C47.0601 22.2768 47.3486 22.4239 47.6589 22.499C48.3284 22.6414 49.0002 22.7719 49.6745 22.8905C50.9902 23.1217 52.3128 23.3087 53.6422 23.4514C56.3408 23.7419 59.0562 23.845 61.769 23.7599C62.6725 23.7317 63.5438 23.7015 64.3717 23.301C64.9739 23.0023 65.4884 22.5513 65.8647 21.9924C66.2192 21.4552 66.4522 20.8465 66.5474 20.2091C66.6426 19.5718 66.5977 18.9212 66.4158 18.3032Z" fill="#E6ECD6"/>
</svg>
